<?xml version="1.0"?>
<svg version="1.1" xmlns="http://www.w3.org/2000/svg" xmlns:xlink="http://www.w3.org/1999/xlink" width="146" height="21" viewbox="0 0 146 21">
    <g id="Layer1" name="Layer 1" opacity="1">
        <g id="Shape1">           
            <path id="shapePath1" d="M11.2401,7.15999 L11.2401,12.86 C11.2401,13.54 11.1231,14.033 10.8901,14.34 C10.6571,14.646 10.2731,14.813 9.7401,14.84 C9.7001,14.84 9.5001,14.843 9.1401,14.85 C8.7801,14.856 8.3901,14.86 7.9701,14.86 C7.5501,14.86 7.1601,14.86 6.8001,14.86 C6.4401,14.86 6.2401,14.86 6.2001,14.86 C4.9871,14.86 3.9801,14.74 3.1801,14.5 C2.3801,14.26 1.7471,13.886 1.2801,13.38 C0.813301,12.873 0.483299,12.236 0.290001,11.47 C0.0966034,10.703 0,9.786 0,8.72 L0,6.73999 C0,5.726 0.0932999,4.83299 0.279999,4.06 C0.466599,3.286 0.803299,2.64299 1.2901,2.12999 C1.7771,1.616 2.4371,1.23 3.2701,0.970001 C4.1031,0.709991 5.1601,0.579987 6.4401,0.579987 C7.2671,0.579987 8.0101,0.582993 8.6701,0.589996 C9.3301,0.595993 10.0401,0.605988 10.8001,0.619995 L10.3801,2.92 C9.7931,2.90599 9.2871,2.896 8.8601,2.89 C8.4331,2.883 8.0671,2.87999 7.7601,2.87999 C7.4531,2.87999 7.1831,2.87999 6.9501,2.87999 C6.7171,2.87999 6.4931,2.87999 6.2801,2.87999 C5.5601,2.87999 4.9701,2.92999 4.5101,3.03 C4.0501,3.12999 3.6901,3.31999 3.4301,3.59999 C3.1701,3.87999 2.9931,4.27299 2.9001,4.78 C2.8071,5.286 2.7601,5.95299 2.7601,6.78 L2.7601,8.65999 C2.7601,9.513 2.8131,10.196 2.9201,10.71 C3.0271,11.223 3.2071,11.616 3.4601,11.89 C3.7131,12.163 4.0571,12.343 4.4901,12.43 C4.9231,12.516 5.4731,12.56 6.1401,12.56 L8.5801,12.56 L8.5801,9.28 L6.1601,9.28 L6.6001,7.15999 L11.2401,7.15999 M13.2291,0 L15.8291,0 L15.8291,14.86 L13.2291,14.86 L13.2291,0 M22.7281,4.14 C23.6211,4.14 24.3811,4.22 25.0081,4.37999 C25.6351,4.53999 26.1481,4.81 26.5481,5.18999 C26.9481,5.56999 27.2381,6.07999 27.4181,6.72 C27.5981,7.36 27.6881,8.15999 27.6881,9.12 L27.6881,10.2 C27.6881,11.16 27.5981,11.96 27.4181,12.6 C27.2381,13.24 26.9481,13.75 26.5481,14.13 C26.1481,14.51 25.6351,14.78 25.0081,14.94 C24.3811,15.1 23.6211,15.18 22.7281,15.18 C21.8211,15.18 21.0551,15.1 20.4281,14.94 C19.8011,14.78 19.2881,14.51 18.8881,14.13 C18.4881,13.75 18.1981,13.24 18.0181,12.6 C17.8381,11.96 17.7481,11.16 17.7481,10.2 L17.7481,9.12 C17.7481,8.15999 17.8381,7.36 18.0181,6.72 C18.1981,6.07999 18.4881,5.56999 18.8881,5.18999 C19.2881,4.81 19.8011,4.53999 20.4281,4.37999 C21.0551,4.22 21.8211,4.14 22.7281,4.14 M25.0481,9.07999 C25.0481,8.46599 25.0151,7.97 24.9481,7.59 C24.8811,7.20999 24.7651,6.92 24.5981,6.72 C24.4311,6.51999 24.1981,6.386 23.8981,6.31999 C23.5981,6.25299 23.2081,6.22 22.7281,6.22 C22.2481,6.22 21.8551,6.25299 21.5481,6.31999 C21.2411,6.386 21.0051,6.51999 20.8381,6.72 C20.6711,6.92 20.5551,7.20999 20.4881,7.59 C20.4211,7.97 20.3881,8.46599 20.3881,9.07999 L20.3881,10.26 C20.3881,10.873 20.4211,11.366 20.4881,11.74 C20.5551,12.113 20.6711,12.4 20.8381,12.6 C21.0051,12.8 21.2411,12.933 21.5481,13 C21.8551,13.066 22.2481,13.1 22.7281,13.1 C23.2081,13.1 23.5981,13.066 23.8981,13 C24.1981,12.933 24.4311,12.8 24.5981,12.6 C24.7651,12.4 24.8811,12.113 24.9481,11.74 C25.0151,11.366 25.0481,10.873 25.0481,10.26 L25.0481,9.07999 M34.5841,6.22 C34.1041,6.22 33.7081,6.256 33.3941,6.32999 C33.0811,6.403 32.8381,6.53299 32.6641,6.72 C32.4911,6.90599 32.3711,7.16299 32.3041,7.48999 C32.2381,7.81599 32.2041,8.233 32.2041,8.73999 L32.2041,10.26 C32.2041,10.873 32.2381,11.366 32.3041,11.74 C32.3711,12.113 32.4881,12.4 32.6541,12.6 C32.8211,12.8 33.0581,12.933 33.3641,13 C33.6711,13.066 34.0641,13.1 34.5441,13.1 C34.9981,13.1 35.3741,13.07 35.6741,13.01 C35.9741,12.95 36.2141,12.82 36.3941,12.62 C36.5741,12.42 36.7011,12.133 36.7741,11.76 C36.8481,11.386 36.8841,10.886 36.8841,10.26 L36.8841,9.14 C36.8841,8.513 36.8481,8.006 36.7741,7.62 C36.7011,7.233 36.5781,6.93599 36.4041,6.73 C36.2311,6.52299 35.9981,6.386 35.7041,6.31999 C35.4111,6.25299 35.0381,6.22 34.5841,6.22 M39.5241,10.22 C39.5241,11.073 39.4441,11.813 39.2841,12.44 C39.1241,13.066 38.8511,13.583 38.4641,13.99 C38.0781,14.396 37.5611,14.696 36.9141,14.89 C36.2681,15.083 35.4581,15.18 34.4841,15.18 C33.6181,15.18 32.8781,15.096 32.2641,14.93 C31.6511,14.763 31.1481,14.49 30.7541,14.11 C30.3611,13.73 30.0711,13.223 29.8841,12.59 C29.6981,11.956 29.6041,11.18 29.6041,10.26 L29.6041,0 L32.2041,0 L32.2041,4.86 C32.4981,4.633 32.8611,4.45599 33.2941,4.32999 C33.7281,4.20299 34.2911,4.14 34.9841,4.14 C35.8111,4.14 36.5111,4.23599 37.0841,4.42999 C37.6581,4.623 38.1241,4.92299 38.4841,5.32999 C38.8441,5.73599 39.1081,6.25 39.2741,6.87 C39.4411,7.48999 39.5241,8.226 39.5241,9.07999 L39.5241,10.22 M47.9121,12.98 L47.9121,11.36 C47.9121,11.12 47.8891,10.916 47.8421,10.75 C47.7961,10.583 47.6991,10.446 47.5521,10.34 C47.4061,10.233 47.1991,10.156 46.9321,10.11 C46.6661,10.063 46.3121,10.04 45.8721,10.04 L45.5721,10.04 C44.8121,10.04 44.2991,10.133 44.0321,10.32 C43.7661,10.506 43.6321,10.846 43.6321,11.34 L43.6321,11.72 C43.6321,12.146 43.7561,12.463 44.0021,12.67 C44.2491,12.876 44.7061,12.98 45.3721,12.98 L47.9121,12.98 M50.4321,12.98 C50.4321,13.686 50.2721,14.176 49.9521,14.45 C49.6321,14.723 49.0791,14.86 48.2921,14.86 L45.0321,14.86 C43.6061,14.86 42.5961,14.593 42.0021,14.06 C41.4091,13.526 41.1121,12.76 41.1121,11.76 L41.1121,11.32 C41.1121,10.213 41.4391,9.40999 42.0921,8.90999 C42.7461,8.40999 43.7661,8.15999 45.1521,8.15999 C45.8461,8.15999 46.4221,8.21599 46.8821,8.32999 C47.3421,8.44299 47.6861,8.573 47.9121,8.72 L47.9121,8.36 C47.9121,8 47.8761,7.7 47.8021,7.45999 C47.7291,7.22 47.6061,7.03 47.4321,6.89 C47.2591,6.75 47.0221,6.653 46.7221,6.59999 C46.4221,6.54599 46.0461,6.51999 45.5921,6.51999 C45.3391,6.51999 45.0591,6.51999 44.7521,6.51999 C44.4461,6.51999 44.1361,6.52299 43.8221,6.53 C43.5091,6.536 43.1991,6.543 42.8921,6.54999 C42.5861,6.556 42.3061,6.56 42.0521,6.56 L42.4721,4.45999 C42.8461,4.446 43.3121,4.43599 43.8721,4.42999 C44.4321,4.42299 45.0461,4.42 45.7121,4.42 C47.3391,4.42 48.5321,4.70599 49.2921,5.28 C50.0521,5.853 50.4321,6.75299 50.4321,7.98 L50.4321,12.98 M52.5421,0 L55.1421,0 L55.1421,14.86 L52.5421,14.86 L52.5421,0 M67.2601,0.619995 L66.8201,2.92 L60.1611,2.92 L60.1611,6.59999 L66.5011,6.59999 L66.0611,8.89999 L60.1611,8.89999 L60.1611,14.86 L57.5011,14.86 L57.5011,0.619995 L67.2601,0.619995 M73.0721,4.14 C73.9651,4.14 74.7251,4.22 75.3521,4.37999 C75.9781,4.53999 76.4921,4.81 76.8921,5.18999 C77.2921,5.56999 77.5821,6.07999 77.7621,6.72 C77.9421,7.36 78.0321,8.15999 78.0321,9.12 L78.0321,10.2 C78.0321,11.16 77.9421,11.96 77.7621,12.6 C77.5821,13.24 77.2921,13.75 76.8921,14.13 C76.4921,14.51 75.9781,14.78 75.3521,14.94 C74.7251,15.1 73.9651,15.18 73.0721,15.18 C72.1651,15.18 71.3981,15.1 70.7721,14.94 C70.1451,14.78 69.6321,14.51 69.2321,14.13 C68.8321,13.75 68.5421,13.24 68.3621,12.6 C68.1821,11.96 68.0921,11.16 68.0921,10.2 L68.0921,9.12 C68.0921,8.15999 68.1821,7.36 68.3621,6.72 C68.5421,6.07999 68.8321,5.56999 69.2321,5.18999 C69.6321,4.81 70.1451,4.53999 70.7721,4.37999 C71.3981,4.22 72.1651,4.14 73.0721,4.14 M75.3921,9.07999 C75.3921,8.46599 75.3581,7.97 75.2921,7.59 C75.2251,7.20999 75.1081,6.92 74.9421,6.72 C74.7751,6.51999 74.5421,6.386 74.2421,6.31999 C73.9421,6.25299 73.5521,6.22 73.0721,6.22 C72.5921,6.22 72.1981,6.25299 71.8921,6.31999 C71.5851,6.386 71.3481,6.51999 71.1821,6.72 C71.0151,6.92 70.8981,7.20999 70.8321,7.59 C70.7651,7.97 70.7321,8.46599 70.7321,9.07999 L70.7321,10.26 C70.7321,10.873 70.7651,11.366 70.8321,11.74 C70.8981,12.113 71.0151,12.4 71.1821,12.6 C71.3481,12.8 71.5851,12.933 71.8921,13 C72.1981,13.066 72.5921,13.1 73.0721,13.1 C73.5521,13.1 73.9421,13.066 74.2421,13 C74.5421,12.933 74.7751,12.8 74.9421,12.6 C75.1081,12.4 75.2251,12.113 75.2921,11.74 C75.3581,11.366 75.3921,10.873 75.3921,10.26 L75.3921,9.07999 M82.5481,14.86 L79.9481,14.86 L79.9481,8.01999 C79.9481,7.353 80.0411,6.78999 80.2281,6.32999 C80.4151,5.87 80.6881,5.5 81.0481,5.22 C81.4081,4.93999 81.8481,4.73599 82.3681,4.61 C82.8881,4.483 83.4811,4.42 84.1481,4.42 C84.6551,4.42 85.0881,4.42 85.4481,4.42 C85.8081,4.42 86.1611,4.42599 86.5081,4.43999 L86.0881,6.59999 C85.8211,6.586 85.5281,6.57599 85.2081,6.56999 C84.8881,6.56299 84.6211,6.56 84.4081,6.56 C83.9811,6.56 83.6481,6.59999 83.4081,6.67999 C83.1681,6.75999 82.9811,6.87599 82.8481,7.03 C82.7151,7.183 82.6311,7.37599 82.5981,7.61 C82.5651,7.84299 82.5481,8.12 82.5481,8.43999 L82.5481,14.86 M87.4641,14.86 L87.4641,7.73999 C87.4641,7.073 87.5571,6.50999 87.7441,6.04999 C87.9301,5.59 88.2071,5.22 88.5741,4.93999 C88.9401,4.65999 89.3901,4.45599 89.9241,4.32999 C90.4571,4.20299 91.0701,4.14 91.7641,4.14 C92.4841,4.14 93.1201,4.23999 93.6741,4.43999 C94.2271,4.64 94.6571,4.92599 94.9641,5.29999 C95.2701,4.92599 95.7041,4.64 96.2641,4.43999 C96.8241,4.23999 97.4701,4.14 98.2041,4.14 C98.8841,4.14 99.4901,4.20299 100.024,4.32999 C100.557,4.45599 101.007,4.65999 101.374,4.93999 C101.74,5.22 102.017,5.59 102.204,6.04999 C102.39,6.50999 102.484,7.073 102.484,7.73999 L102.484,14.86 L99.8841,14.86 L99.8841,8.09999 C99.8841,7.793 99.8671,7.526 99.8341,7.29999 C99.8001,7.073 99.7241,6.883 99.6041,6.73 C99.4841,6.57599 99.3001,6.463 99.0541,6.39 C98.8071,6.31599 98.4771,6.28 98.0641,6.28 C97.6771,6.28 97.3701,6.31299 97.1441,6.37999 C96.9171,6.446 96.7371,6.54599 96.6041,6.67999 C96.4701,6.81299 96.3841,6.98 96.3441,7.17999 C96.3041,7.37999 96.2841,7.61299 96.2841,7.87999 L96.2841,14.86 L93.6841,14.86 L93.6841,8.09999 C93.6841,7.793 93.6671,7.526 93.6341,7.29999 C93.6001,7.073 93.5201,6.883 93.3941,6.73 C93.2671,6.57599 93.0841,6.463 92.8441,6.39 C92.6041,6.31599 92.2771,6.28 91.8641,6.28 C91.4501,6.28 91.1241,6.31599 90.8841,6.39 C90.6441,6.463 90.4641,6.57599 90.3441,6.73 C90.2241,6.883 90.1471,7.073 90.1141,7.29999 C90.0801,7.526 90.0641,7.793 90.0641,8.09999 L90.0641,14.86 L87.4641,14.86 M110.169,8.56 C110.769,8.61299 111.265,8.73 111.659,8.90999 C112.052,9.09 112.359,9.31299 112.579,9.57999 C112.799,9.84599 112.952,10.146 113.039,10.48 C113.125,10.813 113.169,11.153 113.169,11.5 L113.169,11.8 C113.169,12.813 112.815,13.583 112.109,14.11 C111.402,14.636 110.302,14.9 108.809,14.9 C108.555,14.9 108.249,14.9 107.889,14.9 C107.529,14.9 107.145,14.9 106.739,14.9 C106.332,14.9 105.915,14.896 105.489,14.89 C105.062,14.883 104.649,14.873 104.249,14.86 L104.649,12.74 C105.329,12.753 106.055,12.763 106.829,12.77 C107.602,12.776 108.295,12.78 108.909,12.78 C109.575,12.78 110.032,12.706 110.279,12.56 C110.525,12.413 110.649,12.153 110.649,11.78 C110.649,11.486 110.572,11.26 110.419,11.1 C110.265,10.94 109.922,10.833 109.389,10.78 L107.189,10.6 C106.669,10.56 106.225,10.453 105.859,10.28 C105.492,10.106 105.192,9.89 104.959,9.62999 C104.725,9.37 104.559,9.07599 104.459,8.75 C104.359,8.42299 104.309,8.07999 104.309,7.72 L104.309,7.42 C104.309,6.47299 104.632,5.73599 105.279,5.20999 C105.925,4.683 107.015,4.42 108.549,4.42 C109.122,4.42 109.749,4.42299 110.429,4.42999 C111.109,4.43599 111.949,4.446 112.949,4.45999 L112.549,6.57999 C111.962,6.56599 111.449,6.556 111.009,6.54999 C110.569,6.543 110.185,6.53999 109.859,6.53999 C109.532,6.53999 109.245,6.53999 108.999,6.53999 C108.752,6.53999 108.529,6.53999 108.329,6.53999 C107.742,6.53999 107.335,6.603 107.109,6.73 C106.882,6.85599 106.769,7.07999 106.769,7.39999 C106.769,7.70599 106.845,7.92999 106.999,8.06999 C107.152,8.20999 107.509,8.306 108.069,8.36 L110.169,8.56 Z" style="stroke:none;fill-rule:nonzero;fill:#fff;fill-opacity:1;"/>
        </g>
    </g>
</svg>
